<svg xmlns="http://www.w3.org/2000/svg" width="177" height="19" fill="none" aria-labelledby="provider-it-svgicon-89433358" class="svg svg-logo-lg-neg negative"><g fill="#fff" clip-path="url(#a)"><path d="M32.732.01h-6.949a.33.33 0 0 0-.333.333v3.301h10.91v5.207h3.308a.333.333 0 0 0 .333-.333V3.92a.659.659 0 0 0-.196-.48L36.56.198A.658.658 0 0 0 36.081 0l-3.35.01Z"/><path d="M29.095 8.853H25.46V3.645h-3.304a.333.333 0 0 0-.333.333V17.85a.335.335 0 0 0 .333.336h2.968a.335.335 0 0 0 .336-.336v-5.362h10.909v5.362a.336.336 0 0 0 .333.336h2.966a.335.335 0 0 0 .333-.336v-5.086a.667.667 0 0 0-.196-.48l-3.44-3.438-7.27.007ZM159.906 3.448 156.662.204a.672.672 0 0 0-.479-.197H145.88a.337.337 0 0 0-.336.333v3.304h10.912v5.207h3.301a.335.335 0 0 0 .333-.335V3.918a.657.657 0 0 0-.194-.48"/><path d="M149.191 8.851h-3.634V3.645h-3.305a.332.332 0 0 0-.333.333V17.85a.336.336 0 0 0 .333.333h2.969a.337.337 0 0 0 .336-.333v-5.362h10.909v5.362a.335.335 0 0 0 .333.333h2.968a.336.336 0 0 0 .336-.333v-5.086a.673.673 0 0 0-.197-.48l-3.44-3.438-7.275.005ZM130.498.007h-6.949a.336.336 0 0 0-.335.333v3.304h14.213a.336.336 0 0 0 .335-.333V.341a.336.336 0 0 0-.335-.333h-6.948.019ZM119.783 7.476l3.44 3.44h14.216a.332.332 0 0 0 .333-.333V7.615a.334.334 0 0 0-.333-.335h-14.216V3.644h-3.289a.334.334 0 0 0-.333.333v3.026a.657.657 0 0 0 .194.479M119.783 14.75l3.246 3.244a.675.675 0 0 0 .48.196h13.937a.331.331 0 0 0 .333-.333v-2.97a.332.332 0 0 0-.333-.333h-14.223v-3.638h-3.289a.335.335 0 0 0-.333.335v3.027a.657.657 0 0 0 .194.479M74.34 11.252v3.301h3.355a.658.658 0 0 0 .479-.196l3.443-3.441h-6.949a.335.335 0 0 0-.335.335M70.704 10.916V.34a.333.333 0 0 0-.333-.333H67.4a.335.335 0 0 0-.335.333v14.213l3.638 3.637h3.304a.334.334 0 0 0 .33-.34v-3.297h-3.634v-3.637ZM85.055 7.476l-3.44 3.44V.34a.328.328 0 0 1 .205-.308.33.33 0 0 1 .128-.025h2.969a.335.335 0 0 1 .335.333v6.664a.68.68 0 0 1-.197.479M60.003 7.281v7.275H47.278v3.294a.336.336 0 0 0 .333.335h12.116c.18 0 .352-.07.48-.196l3.244-3.247a.667.667 0 0 0 .196-.479V3.96a.336.336 0 0 0-.333-.335h-3.311v3.656Z"/><path d="M47.278 7.282V3.644h12.725V.343a.335.335 0 0 0-.333-.336H47.553a.663.663 0 0 0-.479.197l-3.237 3.244a.667.667 0 0 0-.196.48V14.23a.335.335 0 0 0 .335.333h3.302V7.282ZM108.574.007h-8.546a.335.335 0 0 0-.336.333v3.304h12.723v10.91H99.692v3.296a.333.333 0 0 0 .333.333h12.115a.669.669 0 0 0 .479-.196l3.242-3.237a.67.67 0 0 0 .194-.48V3.92a.677.677 0 0 0-.194-.48L112.614.198a.65.65 0 0 0-.479-.197l-3.561.007ZM99.692 7.282V3.645h-3.301a.333.333 0 0 0-.333.333V14.22a.333.333 0 0 0 .333.333h3.301V7.282ZM17.99 3.697 14.75.453a.66.66 0 0 0-.48-.197H3.969a.333.333 0 0 0-.333.333v3.305h10.911V9.1h3.319a.335.335 0 0 0 .333-.335V4.169A.659.659 0 0 0 18 3.69"/><path d="M7.277 9.1H3.64V3.894H.338a.333.333 0 0 0-.333.333v4.595a.661.661 0 0 0 .194.48l2.693 2.697h.014l.017.017.014.017.015.014a.42.42 0 0 1-.321.683H.333a.333.333 0 0 0-.333.33v5.032a.336.336 0 0 0 .333.336h2.969a.333.333 0 0 0 .333-.333v-5.358H14.21a.336.336 0 0 0 .335-.333V9.102h-7.27V9.1ZM92.188.007h-2.969a.33.33 0 0 0-.333.328v3.031a.676.676 0 0 0 .194.48l2.756 2.743a.412.412 0 0 1-.024.56.421.421 0 0 1-.295.125H89.22a.33.33 0 0 0-.333.33V17.85a.33.33 0 0 0 .33.333h2.972a.333.333 0 0 0 .333-.33V.338a.332.332 0 0 0-.326-.336M175.85 1.79a.16.16 0 0 0 .163-.163V.175a.168.168 0 0 0-.047-.116.157.157 0 0 0-.116-.047h-1.481a.32.32 0 0 0-.239.096l-1.677 1.677 3.397.005ZM172.295 0h-5.01a.167.167 0 0 0-.166.163v2.211a.34.34 0 0 0 .096.24l1.318 1.315.026.027a.035.035 0 0 1 0 .014c.02.031.032.067.034.104a.217.217 0 0 1-.024.106.209.209 0 0 1-.18.109h-1.121a.161.161 0 0 0-.117.047.164.164 0 0 0-.048.116v4.205a.167.167 0 0 0 .165.165h1.452a.17.17 0 0 0 .115-.05.17.17 0 0 0 .048-.115V1.79h3.558V.175a.164.164 0 0 0-.163-.163M175.85 7.078h-1.452a.165.165 0 0 0-.163.163v1.452a.164.164 0 0 0 .163.163h1.452a.16.16 0 0 0 .163-.163V7.24a.161.161 0 0 0-.048-.116.162.162 0 0 0-.115-.047Z"/><path d="M170.677 3.692v4.967a.165.165 0 0 0 .163.163h1.452a.164.164 0 0 0 .165-.163v-6.87l-1.677 1.678a.343.343 0 0 0-.096.24"/></g><defs><clipPath id="a"><path fill="#fff" d="M0 0h176.013v18.428H0z"/></clipPath></defs></svg>